<svg id="Layer_1" data-name="Layer 1" xmlns="http://www.w3.org/2000/svg" viewBox="0 0 531.07 461.73"><defs><style>.cls-1{fill:#40434c;}.cls-2{fill:#f7995e;}</style></defs><polygon class="cls-1" points="454.23 355.05 408.32 400.95 408.32 355.21 372.82 355.21 372.82 461.73 408.32 461.73 408.32 451.17 425.99 433.5 454.23 461.73 479.33 436.63 451.1 408.39 479.33 380.15 454.23 355.05"/><path class="cls-1" d="M138.62,475.16A53.26,53.26,0,0,0,85.36,421.9H32.1V528.42H85.36a53.25,53.25,0,0,0,53.26-53.26Zm-35.51,0a17.74,17.74,0,0,1-17.75,17.75H67.61v-35.5H85.36a17.75,17.75,0,0,1,17.75,17.75Z" transform="translate(-32.1 -66.77)"/><path class="cls-1" d="M156.37,421.9v53.26a53.26,53.26,0,0,0,53.26,53.26h0a53.25,53.25,0,0,0,53.26-53.26V421.9h-35.5v53.26a17.76,17.76,0,0,1-35.51,0V421.9Z" transform="translate(-32.1 -66.77)"/><path class="cls-1" d="M333.91,457.48h53.26V422H333.91a53.25,53.25,0,0,0-53.26,53.26h0a53.26,53.26,0,0,0,53.26,53.26h53.26V493H333.91a17.76,17.76,0,1,1,0-35.51Z" transform="translate(-32.1 -66.77)"/><polygon class="cls-1" points="531.07 395.91 518.52 383.36 505.96 395.91 493.41 383.36 480.86 395.91 493.41 408.47 480.86 421.02 493.41 433.57 505.96 421.02 518.52 433.57 531.07 421.02 518.52 408.47 531.07 395.91"/><path class="cls-2" d="M85.36,492.91v35.51h0a53.25,53.25,0,0,0,53.26-53.26H103.11A17.74,17.74,0,0,1,85.36,492.91Z" transform="translate(-32.1 -66.77)"/><rect class="cls-2" x="124.27" y="355.13" width="35.51" height="53.26"/><rect class="cls-2" x="301.8" y="426.14" width="53.26" height="35.51"/><rect class="cls-2" x="467.01" y="428.52" width="35.51" height="39.93" transform="translate(427.01 -278.19) rotate(45)"/><path class="cls-1" d="M186.93,238a9.89,9.89,0,0,0,7-2.89l19.41-19.42a9.87,9.87,0,0,0-14-14L180,221.18a9.87,9.87,0,0,0,7,16.84Z" transform="translate(-32.1 -66.77)"/><path class="cls-1" d="M461.75,186.37V130.43a63.47,63.47,0,0,0-19.27-45.58c-.11-.12-.2-.23-.31-.34a10.61,10.61,0,0,0-.8-.72,63.45,63.45,0,0,0-43.28-17H197.19a63.74,63.74,0,0,0-63.67,63.66v200.9a63.42,63.42,0,0,0,17,43.29c.22.27.46.54.71.8l.33.29A63.47,63.47,0,0,0,197.19,395h200.9a63.74,63.74,0,0,0,63.66-63.67v-145Zm-129,188.9,0,0a9.87,9.87,0,1,0-13.95-14l-14,14H266.78a9.69,9.69,0,0,0-1.61-2.14,9.88,9.88,0,0,0-14,0l-2.13,2.14h-28a9.86,9.86,0,0,0-14.36-13.5L193.45,375.1a43.69,43.69,0,0,1-20.66-7.25l15.49-15.49a9.86,9.86,0,1,0-13.95-13.95l-15.07,15.06a43.66,43.66,0,0,1-6-21.9l12.34-12.34A9.87,9.87,0,0,0,153.25,304V275.77l2.07-2.06a9.87,9.87,0,0,0,0-13.95,10,10,0,0,0-2.07-1.57V220l60.26-60.25a9.86,9.86,0,0,0-13.95-13.95l-46.31,46.3v-27.9L230.92,86.5h31.64a9.86,9.86,0,0,0,16.82,7.35l7.35-7.35H319.5a9.86,9.86,0,0,0,16.81,6.22l6.22-6.22h27.9L357,100a9.87,9.87,0,0,0,13.95,14l27.41-27.41a43.55,43.55,0,0,1,21.89,6l-42,42a9.87,9.87,0,1,0,13.95,14L434.6,106a43.59,43.59,0,0,1,7.25,20.66l-38.08,38.09a9.86,9.86,0,1,0,14,13.95L442,154.42v27.91L433.35,191a9.87,9.87,0,0,0,7,16.84,9.58,9.58,0,0,0,1.69-.16v30.45l-6.75,6.75A9.86,9.86,0,0,0,442,261.71v32.22l-81.33,81.34ZM197.19,86.5H203l-49.77,49.76v-5.83A44,44,0,0,1,197.19,86.5Zm200.9,288.77h-9.5L442,321.84v9.49A44,44,0,0,1,398.09,375.27Z" transform="translate(-32.1 -66.77)"/><path class="cls-1" d="M398.43,281.72,369,311.16A9.86,9.86,0,1,0,383,325.11l29.43-29.44a9.86,9.86,0,0,0-13.95-13.95Z" transform="translate(-32.1 -66.77)"/><path class="cls-1" d="M295.8,176.08a4.95,4.95,0,0,0,7,0l7.27-7.27,7.27,7.27a4.93,4.93,0,0,0,7-7L317,161.83l7.27-7.27a4.93,4.93,0,1,0-7-7l-7.27,7.27-7.27-7.27a4.93,4.93,0,1,0-7,7l7.27,7.27-7.27,7.27A5,5,0,0,0,295.8,176.08Z" transform="translate(-32.1 -66.77)"/><path class="cls-1" d="M347.48,269.54a79.2,79.2,0,0,1-157.16,0h27.35a9.87,9.87,0,0,0,0-19.73H179.84a9.85,9.85,0,0,0-9.86,9.86,98.93,98.93,0,0,0,197.36,9.87" transform="translate(-32.1 -66.77)"/><path class="cls-1" d="M367.82,189.56V173.28a70.11,70.11,0,1,0-140.21,0v26.15a9.87,9.87,0,0,0,19.73,0V173.28a50.38,50.38,0,1,1,100.75,0v16.28" transform="translate(-32.1 -66.77)"/><path class="cls-1" d="M248.52,293.46a9.86,9.86,0,0,0,14,0l26.81-26.81a9.86,9.86,0,0,0,0-13.95l-26.81-26.81a9.86,9.86,0,0,0-14,14l19.83,19.83-19.83,19.84A9.87,9.87,0,0,0,248.52,293.46Z" transform="translate(-32.1 -66.77)"/><path class="cls-2" d="M367.34,269.54h18.07a40,40,0,0,0,0-80H299.87a9.87,9.87,0,0,0,0,19.73h85.54a20.26,20.26,0,0,1,0,40.52H329.82a9.87,9.87,0,1,0,0,19.73h17.66" transform="translate(-32.1 -66.77)"/></svg>